<svg width="32" height="32" viewBox="0 0 32 32" fill="none" xmlns="http://www.w3.org/2000/svg">
<path fill-rule="evenodd" clip-rule="evenodd" d="M8.23012 7.00051C7.99586 7.02292 7.81717 7.2231 7.81819 7.46197V9.3583L6.54688 9.0843C6.5025 9.07509 6.45702 9.07266 6.41194 9.07709C6.17769 9.09951 5.99899 9.29969 6.00001 9.53856V22.4595C5.99889 22.6792 6.1504 22.8692 6.36222 22.9138L15.9077 24.9904C15.9686 25.0032 16.0314 25.0032 16.0923 24.9904L25.6378 22.9138C25.8496 22.8692 26.0011 22.6792 26 22.4595V9.53856C26.0007 9.39931 25.9394 9.26719 25.8333 9.17901C25.7271 9.09084 25.5874 9.05603 25.4531 9.0843L24.1818 9.3583V7.46197C24.1818 7.20712 23.9783 7.00053 23.7273 7.00051C21.8512 7.00233 20.0376 7.38419 18.571 8.09648C17.4711 8.6307 16.5572 9.35759 16 10.274C15.4428 9.35759 14.5289 8.6307 13.429 8.09648C11.9624 7.38419 10.1488 7.00233 8.27273 7.00051C8.25853 6.99983 8.24431 6.99983 8.23012 7.00051ZM8.72729 7.94508C10.3172 8.00365 11.8387 8.34304 13.0384 8.92569C14.1343 9.45795 14.9449 10.1709 15.3608 11.0023L8.72729 9.5602V7.94508ZM23.2727 9.5602V7.94508C21.6828 8.00365 20.1613 8.34304 18.9617 8.92569C17.8658 9.45795 17.0551 10.1709 16.6392 11.0023L23.2727 9.5602ZM6.90912 10.1154L15.5455 11.9901V23.9593L6.90912 22.0846V10.1154ZM25.0909 22.0846V10.1154L16.4545 11.9901V23.9593L25.0909 22.0846Z" fill="white"/>
</svg>
